<?xml version="1.0" encoding="UTF-8" standalone="no"?>
<!-- Generator: Adobe Illustrator 13.0.2, SVG Export Plug-In  -->

<svg
   xmlns:dc="http://purl.org/dc/elements/1.1/"
   xmlns:cc="http://creativecommons.org/ns#"
   xmlns:rdf="http://www.w3.org/1999/02/22-rdf-syntax-ns#"
   xmlns:svg="http://www.w3.org/2000/svg"
   xmlns="http://www.w3.org/2000/svg"
   xmlns:xlink="http://www.w3.org/1999/xlink"
   xmlns:sodipodi="http://sodipodi.sourceforge.net/DTD/sodipodi-0.dtd"
   xmlns:inkscape="http://www.inkscape.org/namespaces/inkscape"
   version="1.1"
   x="0px"
   y="0px"
   width="210px"
   height="210px"
   viewBox="0 0 210 210"
   enable-background="new 0 0 210 210"
   xml:space="preserve"
   id="svg3410"
   inkscape:version="0.48.0 r9654"
   sodipodi:docname="background.svg"><metadata
   id="metadata3833"><rdf:RDF><cc:Work
       rdf:about=""><dc:format>image/svg+xml</dc:format><dc:type
         rdf:resource="http://purl.org/dc/dcmitype/StillImage" /></cc:Work></rdf:RDF></metadata><sodipodi:namedview
   pagecolor="#ffffff"
   bordercolor="#666666"
   borderopacity="1"
   objecttolerance="10"
   gridtolerance="10"
   guidetolerance="10"
   inkscape:pageopacity="0"
   inkscape:pageshadow="2"
   inkscape:window-width="1833"
   inkscape:window-height="1178"
   id="namedview3831"
   showgrid="false"
   inkscape:zoom="4"
   inkscape:cx="66.75391"
   inkscape:cy="122.625"
   inkscape:window-x="79"
   inkscape:window-y="-8"
   inkscape:window-maximized="1"
   inkscape:current-layer="svg3410" />
<defs
   id="defs3412">
<radialGradient
   inkscape:collect="always"
   xlink:href="#SVGID_1_"
   id="radialGradient3355"
   gradientUnits="userSpaceOnUse"
   gradientTransform="matrix(0.9944,0,0,-0.9944,101.1987,90.0014)"
   cx="0.8066"
   cy="-16.5908"
   r="92.0159" /></defs>
<radialGradient
   id="SVGID_1_"
   cx="0.8066"
   cy="-16.5908"
   r="92.0159"
   gradientTransform="matrix(0.9944 0 0 -0.9944 101.1987 90.0014)"
   gradientUnits="userSpaceOnUse">
	<stop
   offset="0.1264"
   style="stop-color:#E0E0E0"
   id="stop3415" />
	<stop
   offset="0.3421"
   style="stop-color:#C7C7C7"
   id="stop3417" />
	<stop
   offset="0.5495"
   style="stop-color:#B3B3B3"
   id="stop3419" />
	<stop
   offset="0.721"
   style="stop-color:#B1B1B1"
   id="stop3421" />
	<stop
   offset="0.7828"
   style="stop-color:#AAAAAA"
   id="stop3423" />
	<stop
   offset="0.8269"
   style="stop-color:#9E9E9E"
   id="stop3425" />
	<stop
   offset="0.8625"
   style="stop-color:#8D8D8D"
   id="stop3427" />
	<stop
   offset="0.893"
   style="stop-color:#777777"
   id="stop3429" />
	<stop
   offset="0.92"
   style="stop-color:#5C5C5C"
   id="stop3431" />
	<stop
   offset="0.9445"
   style="stop-color:#3C3C3C"
   id="stop3433" />
	<stop
   offset="0.9662"
   style="stop-color:#171717"
   id="stop3435" />
	<stop
   offset="0.978"
   style="stop-color:#000000"
   id="stop3437" />
</radialGradient>
<path
   sodipodi:type="arc"
   style="fill:#ffffff;fill-opacity:1;fill-rule:evenodd;stroke:#000000;stroke-width:0;stroke-linecap:butt;stroke-linejoin:round;stroke-miterlimit:4;stroke-opacity:1;stroke-dasharray:none;marker-start:none"
   id="path4131"
   sodipodi:cx="10"
   sodipodi:cy="102.5"
   sodipodi:rx="93"
   sodipodi:ry="93"
   d="m 103,102.5 a 93,93 0 1 1 -186,0 93,93 0 1 1 186,0 z"
   transform="matrix(0.92473119,0,0,0.92473119,91.502689,2.2150538)" /><circle
   cx="102"
   cy="98"
   r="85"
   id="circle3439"
   style="fill:url(#radialGradient3355);opacity:0.21681416"
   sodipodi:cx="102"
   sodipodi:cy="98"
   sodipodi:rx="85"
   sodipodi:ry="85"
   transform="translate(-0.75,-0.5)" />


<linearGradient
   id="SVGID_2_"
   gradientUnits="userSpaceOnUse"
   x1="-15.9541"
   y1="83.9062"
   x2="13.6193"
   y2="-106.171"
   gradientTransform="matrix(1 0 0 -1 102.5 88)">
	<stop
   offset="0"
   style="stop-color:#B3B3B3"
   id="stop3446" />
	<stop
   offset="0.151"
   style="stop-color:#AFAFAF"
   id="stop3448" />
	<stop
   offset="0.301"
   style="stop-color:#A3A3A3"
   id="stop3450" />
	<stop
   offset="0.4506"
   style="stop-color:#8F8F8F"
   id="stop3452" />
	<stop
   offset="0.6001"
   style="stop-color:#737373"
   id="stop3454" />
	<stop
   offset="0.7495"
   style="stop-color:#4F4F4F"
   id="stop3456" />
	<stop
   offset="0.8968"
   style="stop-color:#232323"
   id="stop3458" />
	<stop
   offset="1"
   style="stop-color:#000000"
   id="stop3460" />
</linearGradient>
<path
   d="M101,187.999c-50.178,0-91-40.821-91-91c0-50.178,40.822-91,91-91c50.178,0,91,40.822,91,91  C191.999,147.178,151.178,187.999,101,187.999L101,187.999z M101,13c-46.316,0-84,37.684-84,84c0,46.316,37.684,84,84,84  c46.316,0,84-37.684,84-84C185,50.683,147.316,13,101,13L101,13z"
   id="path3462"
   fill="url(#SVGID_2_)" />
<linearGradient
   id="SVGID_3_"
   gradientUnits="userSpaceOnUse"
   x1="-79.4551"
   y1="-54.0073"
   x2="76.4557"
   y2="36.0078"
   gradientTransform="matrix(1 0 0 -1 102.5 88)">
	<stop
   offset="0"
   style="stop-color:#ECECEC"
   id="stop3465" />
	<stop
   offset="0.0105"
   style="stop-color:#DDDDDD"
   id="stop3467" />
	<stop
   offset="0.0399"
   style="stop-color:#B7B7B7"
   id="stop3469" />
	<stop
   offset="0.0704"
   style="stop-color:#979797"
   id="stop3471" />
	<stop
   offset="0.1021"
   style="stop-color:#7F7F7F"
   id="stop3473" />
	<stop
   offset="0.1353"
   style="stop-color:#6E6E6E"
   id="stop3475" />
	<stop
   offset="0.1712"
   style="stop-color:#636363"
   id="stop3477" />
	<stop
   offset="0.2143"
   style="stop-color:#606060"
   id="stop3479" />
	<stop
   offset="0.4615"
   style="stop-color:#FFFFFF"
   id="stop3481" />
	<stop
   offset="0.5195"
   style="stop-color:#CFCFCF"
   id="stop3483" />
	<stop
   offset="0.5899"
   style="stop-color:#9A9A9A"
   id="stop3485" />
	<stop
   offset="0.6512"
   style="stop-color:#747474"
   id="stop3487" />
	<stop
   offset="0.7002"
   style="stop-color:#5D5D5D"
   id="stop3489" />
	<stop
   offset="0.7308"
   style="stop-color:#545454"
   id="stop3491" />
	<stop
   offset="1"
   style="stop-color:#ECECEC"
   id="stop3493" />
</linearGradient>

<circle
   fill="none"
   cx="102"
   cy="98.001"
   r="65"
   id="circle3497" />
<text
   transform="matrix(-0.64479074,-0.75116152,0.76651608,-0.65792294,0,0)"
   font-size="12"
   id="text3499"
   x="-146.713"
   y="-51.289188"
   style="font-size:17.81880379px;font-family:MyriadPro-Regular">0</text>


<text
   transform="matrix(-0.589 -0.7833 0.7993 -0.601 50.7637 138.0234)"
   font-family="'MyriadPro-Regular'"
   font-size="12.0005"
   id="text3501"> </text>





<text
   transform="matrix(-0.00121622,-0.98994797,1.0101525,-0.00126583,0,0)"
   font-size="12.0004"
   id="text3509"
   style="font-size:17.82022667px;font-family:MyriadPro-Regular"
   x="-104.96312"
   y="36.77372">10</text>


<text
   transform="matrix(0.10505173,-0.98435488,1.0044561,0.10717296,0,0)"
   font-size="12.0005"
   id="text3511"
   x="-92.102493"
   y="48.447739"
   style="font-size:17.82053566px;font-family:MyriadPro-Regular" />


<text
   transform="matrix(0.167 -0.9657 0.9854 0.1704 37.7407 88.0718)"
   font-family="'MyriadPro-Regular'"
   font-size="12"
   id="text3513"> </text>





<text
   transform="matrix(0.6739675,-0.72508074,0.73992985,0.68770545,0,0)"
   font-size="12"
   id="text3521"
   style="font-size:17.81925774px;font-family:MyriadPro-Regular"
   x="-7.0894938"
   y="75.165848">20</text>


<text
   transform="matrix(0.73750945,-0.6603341,0.67387009,0.75256066,0,0)"
   font-size="12"
   id="text3523"
   x="8.920433"
   y="77.227142"
   style="font-size:17.81916237px;font-family:MyriadPro-Regular" />







<text
   transform="matrix(0.98990097,0.00950148,-0.00970178,1.0101089,0,0)"
   font-size="12"
   id="text3533"
   style="font-size:17.81939507px;font-family:MyriadPro-Regular"
   x="94.527229"
   y="31.945738">30</text>


<text
   transform="matrix(0.98784498,0.06495391,-0.06626713,1.0079473,0,0)"
   font-size="11.9994"
   id="text3535"
   x="106.70717"
   y="27.800619"
   style="font-size:17.8178978px;font-family:MyriadPro-Regular" />







<text
   transform="matrix(0.72629621,0.67265737,-0.68639538,0.74114539,0,0)"
   font-size="12"
   id="text3545"
   style="font-size:17.81917572px;font-family:MyriadPro-Regular"
   x="135.5206"
   y="-62.90757">40</text>


<text
   transform="matrix(0.66174261,0.73629093,-0.75134201,0.67517747,0,0)"
   font-size="12"
   id="text3547"
   x="137.8389"
   y="-72.500687"
   style="font-size:17.81931496px;font-family:MyriadPro-Regular" />


<text
   transform="matrix(0.61286741,0.77742337,-0.79328297,0.62539347,0,0)"
   font-size="12"
   id="text3549"
   x="140.31995"
   y="-83.585785"
   style="font-size:17.81886292px;font-family:MyriadPro-Regular"> </text>





<text
   transform="matrix(0.00900132,0.98994205,-1.0100763,0.00922127,0,0)"
   font-size="12"
   id="text3557"
   style="font-size:17.8192234px;font-family:MyriadPro-Regular"
   x="88.972183"
   y="-164.03438">50</text>



<text
   transform="matrix(-0.067 0.9777 -0.9977 -0.0684 167.0527 99.502)"
   font-family="'MyriadPro-Regular'"
   font-size="12.0005"
   id="text3561" />


<text
   transform="matrix(-0.13182323,0.98114868,-1.0011494,-0.13444959,0,0)"
   font-size="12"
   id="text3563"
   x="85.226158"
   y="-177.61653"
   style="font-size:11.87954521px;font-family:MyriadPro-Regular"> </text>







<text
   transform="matrix(-0.67045066,0.72833347,-0.74318299,-0.68418899,0,0)"
   font-size="12"
   id="text3575"
   style="font-size:17.81876183px;font-family:MyriadPro-Regular"
   x="-6.7630816"
   y="-204.83575">60</text>


<text
   transform="matrix(-0.7269 0.6572 -0.6707 -0.7418 147.8154 144.2051)"
   font-family="'MyriadPro-Regular'"
   font-size="12.0006"
   id="text3577" />


<path
   d="m 141.121,133.456 7.08,6.485 -0.436,0.475 -7.08,-6.484 0.436,-0.476 z"
   id="path3579"
   inkscape:connector-curvature="0"
   style="fill:#333333" />




<path
   fill="#333333"
   d="M147.157,125.37l8.179,5.036l-0.338,0.548l-8.18-5.035L147.157,125.37z"
   id="path3589" />




<path
   fill="#333333"
   d="M151.539,116.303l8.988,3.389l-0.229,0.603l-8.986-3.388L151.539,116.303z"
   id="path3599" />




<path
   fill="#333333"
   d="M154.117,106.549l9.461,1.604l-0.107,0.634l-9.461-1.603L154.117,106.549z"
   id="path3609" />




<path
   fill="#333333"
   d="M154.777,96.482l9.6-0.213l0.014,0.643l-9.598,0.214L154.777,96.482z"
   id="path3619" />




<path
   fill="#333333"
   d="M153.539,86.475l9.384-2.029l0.138,0.629l-9.386,2.029L153.539,86.475z"
   id="path3629" />




<path
   fill="#333333"
   d="M150.427,76.915l8.819-3.784l0.254,0.592l-8.82,3.784L150.427,76.915z"
   id="path3639" />




<path
   fill="#333333"
   d="M145.529,68.108l7.936-5.401l0.362,0.531l-7.935,5.402L145.529,68.108z"
   id="path3649" />




<path
   fill="#333333"
   d="M139.052,60.387l6.774-6.806l0.456,0.454l-6.774,6.806L139.052,60.387z"
   id="path3659" />




<path
   fill="#333333"
   d="M131.211,54.016l5.371-7.966l0.534,0.36l-5.371,7.965L131.211,54.016z"
   id="path3669" />




<path
   fill="#333333"
   d="M122.325,49.252l3.754-8.835l0.592,0.252l-3.754,8.835L122.325,49.252z"
   id="path3679" />




<path
   fill="#333333"
   d="M112.713,46.28l1.998-9.385l0.629,0.135l-1.999,9.384L112.713,46.28z"
   id="path3689" />




<path
   fill="#333333"
   d="M102.68,45.202l0.183-9.598l0.644,0.013l-0.184,9.598L102.68,45.202z"
   id="path3699" />




<path
   fill="#333333"
   d="M92.632,46.025l-1.633-9.46l0.634-0.109l1.633,9.46L92.632,46.025z"
   id="path3709" />




<path
   fill="#333333"
   d="M82.944,48.742l-3.418-8.972l0.602-0.229l3.418,8.973L82.944,48.742z"
   id="path3719" />




<path
   fill="#333333"
   d="M73.931,53.274l-5.066-8.163l0.547-0.34l5.066,8.164L73.931,53.274z"
   id="path3729" />




<path
   fill="#333333"
   d="M65.941,59.427l-6.515-7.05l0.472-0.437l6.516,7.05L65.941,59.427z"
   id="path3739" />




<path
   fill="#333333"
   d="M59.263,66.991L51.526,61.3l0.381-0.519l7.736,5.691L59.263,66.991z"
   id="path3749" />




<path
   fill="#333333"
   d="M54.141,75.654l-8.667-4.12l0.275-0.58l8.667,4.119L54.141,75.654z"
   id="path3759" />




<path
   fill="#333333"
   d="M50.768,85.146l-9.293-2.38l0.159-0.623l9.293,2.38L50.768,85.146z"
   id="path3769" />




<path
   fill="#333333"
   d="M49.276,95.13l-9.583-0.564l0.038-0.643l9.583,0.564L49.276,95.13z"
   id="path3779" />




<path
   fill="#333333"
   d="M49.688,105.223l-9.521,1.235l-0.083-0.638l9.521-1.236L49.688,105.223z"
   id="path3789" />




<path
   fill="#333333"
   d="M51.998,115.01l-9.109,3.037l-0.204-0.609l9.11-3.037L51.998,115.01z"
   id="path3799" />




<path
   fill="#333333"
   d="M56.144,124.195l-8.362,4.716l-0.315-0.562l8.361-4.715L56.144,124.195z"
   id="path3809" />




<path
   fill="#333333"
   d="M61.971,132.432l-7.31,6.226l-0.417-0.49l7.31-6.226L61.971,132.432z"
   id="path3819" />





</svg>